<?xml version="1.0" encoding="UTF-8"?>
<!DOCTYPE svg PUBLIC "-//W3C//DTD SVG 1.1//EN" "http://www.w3.org/Graphics/SVG/1.1/DTD/svg11.dtd">
<!-- Creator: CorelDRAW (Evaluation Version) -->
<svg xmlns="http://www.w3.org/2000/svg" xml:space="preserve" width="23.3858in" height="16.5354in" version="1.1" style="shape-rendering:geometricPrecision; text-rendering:geometricPrecision; image-rendering:optimizeQuality; fill-rule:evenodd; clip-rule:evenodd"
viewBox="0 0 23384.98 16534.84"
 xmlns:xlink="http://www.w3.org/1999/xlink"
 xmlns:xodm="http://www.corel.com/coreldraw/odm/2003">
 <defs>
  <style type="text/css">
   <![CDATA[
    .fil0 {fill:#2488FE}
    .fil1 {fill:white;fill-rule:nonzero}
   ]]>
  </style>
 </defs>
 <g id="Layer_x0020_1">
  <metadata id="CorelCorpID_0Corel-Layer"/>
  <rect class="fil0" width="23384.98" height="16534.84"/>
  <polygon class="fil1" points="10331.06,7517.76 10331.06,9036.66 10026.42,9036.66 10026.42,7976.92 9636.89,9036.66 9371.42,9036.66 8981.9,7981.27 8981.9,9036.66 8675.06,9036.66 8675.06,7517.76 9047.17,7517.76 9508.51,8660.22 9961.13,7517.76 "/>
  <polygon class="fil1" points="10916.42,7744.08 10916.42,8142.3 11460.44,8142.3 11460.44,8377.32 10916.42,8377.32 10916.42,8790.77 11525.72,8790.77 11525.72,9036.67 10609.59,9036.67 10609.59,7500.36 11525.72,7500.36 11525.72,7744.08 "/>
  <polygon class="fil1" points="13053.33,9036.67 12746.49,9036.67 12058.86,7992.14 12058.86,9036.67 11752.02,9036.67 11752.02,7500.36 12058.86,7500.36 12746.49,8553.59 12746.49,7500.36 13053.33,7500.36 "/>
  <path class="fil1" d="M13627.8 7500.36l0 900.9c0,120.43 26.46,210.74 79.43,270.91 52.94,60.22 129.48,90.31 229.57,90.31 98.64,0 174.43,-30.09 227.4,-90.31 52.94,-60.17 79.43,-150.47 79.43,-270.91l0 -900.9 304.65 0 0 900.9c0,142.2 -26.48,262.21 -79.43,360.13 -52.97,97.93 -126.22,170.82 -219.77,218.69 -93.58,47.88 -199.88,71.81 -318.8,71.81 -184.27,0 -331.53,-55.1 -441.75,-165.37 -110.27,-110.24 -165.39,-272.01 -165.39,-485.27l0 -900.9 304.65 0z"/>
  <path class="fil1" d="M15542.76 7842l-465.67 620.18 465.67 0 0 -620.18zm-779.03 885.67l0 -254.6 735.51 -990.13 328.59 0 0 979.24 200.2 0 0 265.49 -200.2 0 0 309 -309 0 0 -309 -755.11 0z"/>
  <polygon class="fil1" points="16833.15,8255.45 17483.8,9036.67 17111.7,9036.67 16543.74,8333.8 16543.74,9036.67 16236.91,9036.67 16236.91,7500.36 16543.74,7500.36 16543.74,8190.17 17113.87,7500.36 17483.8,7500.36 "/>
  <path class="fil1" d="M7739.31 9131.74l-1230.28 280.13 0 -2288.81 1230.28 280.06 0 425.09c10.03,-0.7 20.05,-1.09 30.17,-1.09 36.56,0 72.02,4.67 105.85,13.38l0 -545.8 -1502.23 -342.12 0 2629.68 1502.23 -342.03 0 -139.68 -136.02 0 0 31.19zm136.02 -1210.37c-33.37,-10.72 -68.99,-16.48 -105.85,-16.48 -10.18,0 -20.21,0.47 -30.17,1.32 -26.99,2.34 -52.97,7.85 -77.78,16.02l0 1100.54 291.57 0 0 -1065.38c-24.12,-15.09 -50.16,-27.3 -77.77,-36.02z"/>
  <path class="fil1" d="M6373.09 6952.58l0 2629.68 1502.24 -342.04 0 -139.68 -136.03 0 0 31.2 -1230.26 280.13 0 -2288.82 1230.26 280.05 0 425.11c10.04,-0.7 20.07,-1.09 30.17,-1.09 36.56,0 72.02,4.67 105.85,13.38l0 -545.8 -1502.24 -342.11zm1366.21 953.63l0 1116.57 136.03 0 0 -1101.4c-33.36,-10.74 -68.98,-16.49 -105.85,-16.49 -10.18,0 -20.21,0.48 -30.17,1.32z"/>
  <path class="fil1" d="M6295.32 8046.21l0 966.55c-224.92,-45.97 -394.14,-244.99 -394.14,-483.44 0,-128.24 48.92,-244.97 129.18,-332.62 68.9,-75.36 160.99,-129.34 264.97,-150.49z"/>
  <path class="fil1" d="M8429.22 8660.21c0,91.54 -33.92,175.14 -89.91,238.92 -66.41,75.82 -163.94,123.65 -272.66,123.65l-1479.84 0 0 -1338.52c8.33,-7.63 16.81,-15.09 25.52,-22.26 113.23,-93.62 258.5,-149.93 416.93,-149.93 278.11,0 515.55,173.51 610.35,418.1 7.24,-2.89 14.46,-5.53 21.94,-7.93 24.8,-8.17 50.78,-13.7 77.77,-16.03 9.95,-0.86 19.97,-1.32 30.17,-1.32 36.86,0 72.49,5.75 105.84,16.49 27.62,8.71 53.67,20.92 77.77,36 98.39,61.28 163.88,170.48 163.88,294.91 0,16.57 -1.56,32.74 -3.81,48.68 178.17,22.86 316.06,174.84 316.06,359.23z"/>
  <path class="fil1" d="M6295.32 8046.21l0 966.55c-224.92,-45.97 -394.14,-244.99 -394.14,-483.44 0,-128.24 48.92,-244.97 129.18,-332.62 68.9,-75.36 160.99,-129.34 264.97,-150.49z"/>
  <path class="fil1" d="M8429.22 8660.21c0,91.54 -33.92,175.14 -89.91,238.92 -66.41,75.82 -163.94,123.65 -272.66,123.65l-1479.84 0 0 -1338.52c8.33,-7.63 16.81,-15.09 25.52,-22.26 113.23,-93.62 258.5,-149.93 416.93,-149.93 278.11,0 515.55,173.51 610.35,418.1 7.24,-2.89 14.46,-5.53 21.94,-7.93 24.8,-8.17 50.78,-13.7 77.77,-16.03 9.95,-0.86 19.97,-1.32 30.17,-1.32 36.86,0 72.49,5.75 105.84,16.49 27.62,8.71 53.67,20.92 77.77,36 98.39,61.28 163.88,170.48 163.88,294.91 0,16.57 -1.56,32.74 -3.81,48.68 178.17,22.86 316.06,174.84 316.06,359.23z"/>
 </g>
</svg>
